<mxfile host="65bd71144e">
    <diagram id="bZpIHXyVJihy7WF5uU0A" name="Page-1">
        <mxGraphModel dx="1344" dy="775" grid="1" gridSize="10" guides="1" tooltips="1" connect="1" arrows="1" fold="1" page="1" pageScale="1" pageWidth="850" pageHeight="1100" math="0" shadow="0">
            <root>
                <mxCell id="0"/>
                <mxCell id="1" parent="0"/>
                <mxCell id="19" value="Container Engine" style="rounded=0;whiteSpace=wrap;html=1;horizontal=1;verticalAlign=middle;fontSize=14;fontStyle=1;align=left;spacingLeft=20;" vertex="1" parent="1">
                    <mxGeometry x="310" y="310" width="230" height="40" as="geometry"/>
                </mxCell>
                <mxCell id="20" value="Containerization" style="text;html=1;strokeColor=none;fillColor=none;align=center;verticalAlign=middle;whiteSpace=wrap;rounded=0;fontSize=16;fontStyle=1" vertex="1" parent="1">
                    <mxGeometry x="310" y="460" width="230" height="30" as="geometry"/>
                </mxCell>
                <mxCell id="21" value="Virtualization" style="text;html=1;strokeColor=none;fillColor=none;align=center;verticalAlign=middle;whiteSpace=wrap;rounded=0;fontSize=16;fontStyle=1" vertex="1" parent="1">
                    <mxGeometry x="40" y="460" width="230" height="30" as="geometry"/>
                </mxCell>
                <mxCell id="22" value="VM1" style="rounded=0;whiteSpace=wrap;html=1;horizontal=1;verticalAlign=top;fontSize=14;fontStyle=1;fillColor=#f5f5f5;fontColor=#333333;strokeColor=#666666;" vertex="1" parent="1">
                    <mxGeometry x="40" y="110" width="110" height="190" as="geometry"/>
                </mxCell>
                <mxCell id="23" value="VM2" style="rounded=0;whiteSpace=wrap;html=1;horizontal=1;verticalAlign=top;fontSize=14;fontStyle=1;fillColor=#f5f5f5;fontColor=#333333;strokeColor=#666666;" vertex="1" parent="1">
                    <mxGeometry x="160" y="110" width="110" height="190" as="geometry"/>
                </mxCell>
                <mxCell id="24" value="App" style="rounded=0;whiteSpace=wrap;html=1;horizontal=1;verticalAlign=middle;fontSize=14;fontStyle=1" vertex="1" parent="1">
                    <mxGeometry x="50" y="140" width="90" height="40" as="geometry"/>
                </mxCell>
                <mxCell id="25" value="Bins/Libs" style="rounded=0;whiteSpace=wrap;html=1;horizontal=1;verticalAlign=middle;fontSize=14;fontStyle=1" vertex="1" parent="1">
                    <mxGeometry x="50" y="190" width="90" height="40" as="geometry"/>
                </mxCell>
                <mxCell id="26" value="App" style="rounded=0;whiteSpace=wrap;html=1;horizontal=1;verticalAlign=middle;fontSize=14;fontStyle=1" vertex="1" parent="1">
                    <mxGeometry x="170" y="140" width="90" height="40" as="geometry"/>
                </mxCell>
                <mxCell id="27" value="Bins/Libs" style="rounded=0;whiteSpace=wrap;html=1;horizontal=1;verticalAlign=middle;fontSize=14;fontStyle=1" vertex="1" parent="1">
                    <mxGeometry x="170" y="190" width="90" height="40" as="geometry"/>
                </mxCell>
                <mxCell id="28" value="Hypervisor" style="rounded=0;whiteSpace=wrap;html=1;horizontal=1;verticalAlign=middle;fontSize=14;fontStyle=1" vertex="1" parent="1">
                    <mxGeometry x="40" y="310" width="230" height="40" as="geometry"/>
                </mxCell>
                <mxCell id="29" value="Container 1" style="rounded=0;whiteSpace=wrap;html=1;horizontal=1;verticalAlign=top;fontSize=14;fontStyle=1;fillColor=#f5f5f5;fontColor=#333333;strokeColor=#666666;" vertex="1" parent="1">
                    <mxGeometry x="310" y="170" width="110" height="130" as="geometry"/>
                </mxCell>
                <mxCell id="30" value="Container 2" style="rounded=0;whiteSpace=wrap;html=1;horizontal=1;verticalAlign=top;fontSize=14;fontStyle=1;fillColor=#f5f5f5;fontColor=#333333;strokeColor=#666666;" vertex="1" parent="1">
                    <mxGeometry x="430" y="170" width="110" height="130" as="geometry"/>
                </mxCell>
                <mxCell id="31" value="App" style="rounded=0;whiteSpace=wrap;html=1;horizontal=1;verticalAlign=middle;fontSize=14;fontStyle=1" vertex="1" parent="1">
                    <mxGeometry x="320" y="200" width="90" height="40" as="geometry"/>
                </mxCell>
                <mxCell id="32" value="App" style="rounded=0;whiteSpace=wrap;html=1;horizontal=1;verticalAlign=middle;fontSize=14;fontStyle=1" vertex="1" parent="1">
                    <mxGeometry x="440" y="200" width="90" height="40" as="geometry"/>
                </mxCell>
                <mxCell id="36" value="Guest OS" style="rounded=0;whiteSpace=wrap;html=1;horizontal=1;verticalAlign=middle;fontSize=14;fontStyle=1" vertex="1" parent="1">
                    <mxGeometry x="50" y="240" width="90" height="40" as="geometry"/>
                </mxCell>
                <mxCell id="37" value="Guest OS" style="rounded=0;whiteSpace=wrap;html=1;horizontal=1;verticalAlign=middle;fontSize=14;fontStyle=1" vertex="1" parent="1">
                    <mxGeometry x="170" y="240" width="90" height="40" as="geometry"/>
                </mxCell>
                <mxCell id="38" value="(Host OS)" style="rounded=0;whiteSpace=wrap;html=1;horizontal=1;verticalAlign=middle;fontSize=14;fontStyle=1" vertex="1" parent="1">
                    <mxGeometry x="40" y="360" width="230" height="40" as="geometry"/>
                </mxCell>
                <mxCell id="39" value="Infrastructure" style="rounded=0;whiteSpace=wrap;html=1;horizontal=1;verticalAlign=middle;fontSize=14;fontStyle=1;align=left;spacingLeft=20;" vertex="1" parent="1">
                    <mxGeometry x="310" y="410" width="230" height="40" as="geometry"/>
                </mxCell>
                <mxCell id="40" value="Host OS" style="rounded=0;whiteSpace=wrap;html=1;horizontal=1;verticalAlign=middle;fontSize=14;fontStyle=1;align=left;spacingLeft=20;" vertex="1" parent="1">
                    <mxGeometry x="310" y="360" width="230" height="40" as="geometry"/>
                </mxCell>
                <mxCell id="33" value="Host Kernel" style="rounded=0;whiteSpace=wrap;html=1;horizontal=1;verticalAlign=middle;fontSize=14;fontStyle=1;strokeWidth=2;dashed=1;" vertex="1" parent="1">
                    <mxGeometry x="470" y="330" width="50" height="50" as="geometry"/>
                </mxCell>
                <mxCell id="41" value="Bins/Libs" style="rounded=0;whiteSpace=wrap;html=1;horizontal=1;verticalAlign=middle;fontSize=14;fontStyle=1" vertex="1" parent="1">
                    <mxGeometry x="320" y="250" width="90" height="40" as="geometry"/>
                </mxCell>
                <mxCell id="42" value="Bins/Libs" style="rounded=0;whiteSpace=wrap;html=1;horizontal=1;verticalAlign=middle;fontSize=14;fontStyle=1" vertex="1" parent="1">
                    <mxGeometry x="440" y="250" width="90" height="40" as="geometry"/>
                </mxCell>
                <mxCell id="45" value="Infrastructure" style="rounded=0;whiteSpace=wrap;html=1;horizontal=1;verticalAlign=middle;fontSize=14;fontStyle=1" vertex="1" parent="1">
                    <mxGeometry x="40" y="410" width="230" height="40" as="geometry"/>
                </mxCell>
                <mxCell id="47" value="Virtual&lt;br&gt;Kernel" style="rounded=0;whiteSpace=wrap;html=1;horizontal=1;verticalAlign=middle;fontSize=14;fontStyle=1;strokeWidth=2;dashed=1;" vertex="1" parent="1">
                    <mxGeometry x="60" y="290" width="50" height="35" as="geometry"/>
                </mxCell>
                <mxCell id="49" value="Virtual&lt;br&gt;Kernel" style="rounded=0;whiteSpace=wrap;html=1;horizontal=1;verticalAlign=middle;fontSize=14;fontStyle=1;strokeWidth=2;dashed=1;" vertex="1" parent="1">
                    <mxGeometry x="200" y="290" width="50" height="35" as="geometry"/>
                </mxCell>
            </root>
        </mxGraphModel>
    </diagram>
</mxfile>
